<svg id="Layer_1" data-name="Layer 1" xmlns="http://www.w3.org/2000/svg" viewBox="0 0 688.29 92.44"><defs><style>.cls-1{fill:#f8991d;}.cls-2{fill:#f15938;}</style></defs><title>LCM-916-LC-LOGO</title><path class="cls-1" d="M169.48,41h19.38L179,111.09H215L212.47,129H157.18Z" transform="translate(-51.86 -38.78)"/><polygon class="cls-1" points="174.39 29.82 193.03 29.82 184.57 90.21 165.94 90.21 174.39 29.82"/><path class="cls-1" d="M248.93,68.6h20.13l9.44,41h.25l20-41h18.76L285.21,129H265.45Z" transform="translate(-51.86 -38.78)"/><path class="cls-1" d="M365.32,118.55a35.65,35.65,0,0,1-12.49,8.82,36.91,36.91,0,0,1-14.6,3.11,35.48,35.48,0,0,1-12.8-2.24,25.81,25.81,0,0,1-9.75-6.4,25.19,25.19,0,0,1-5.72-10,30,30,0,0,1-.81-13,35,35,0,0,1,4.41-13,36.77,36.77,0,0,1,8.51-10,37.46,37.46,0,0,1,11.56-6.4,40.71,40.71,0,0,1,13.42-2.24,27.59,27.59,0,0,1,11.43,2.24,20.26,20.26,0,0,1,8.08,6.4,24.69,24.69,0,0,1,4.29,10,39,39,0,0,1,.19,13l-.87,5.84H326.93a12.54,12.54,0,0,0,3.67,8.51,12.1,12.1,0,0,0,8.76,3.17,15.29,15.29,0,0,0,8-2.05,26.77,26.77,0,0,0,6.27-5.28ZM353.27,92a9.8,9.8,0,0,0-2-8.08,9.52,9.52,0,0,0-7.83-3.35,15,15,0,0,0-5.59,1,16.08,16.08,0,0,0-4.35,2.55,14.32,14.32,0,0,0-3.11,3.6A14.12,14.12,0,0,0,328.67,92Z" transform="translate(-51.86 -38.78)"/><path class="cls-1" d="M441,63.88a16.53,16.53,0,0,0-6.34-5.34,21.25,21.25,0,0,0-9.32-1.86,26.42,26.42,0,0,0-10.44,2.11,29,29,0,0,0-8.88,5.9,34,34,0,0,0-6.59,9A35.67,35.67,0,0,0,395.91,85a31.29,31.29,0,0,0,.31,11.37,23.81,23.81,0,0,0,4,8.95,19.2,19.2,0,0,0,7.08,5.9,21.19,21.19,0,0,0,9.51,2.11,24.09,24.09,0,0,0,10.93-2.49,25.67,25.67,0,0,0,8.57-7l14.41,12.05a41.27,41.27,0,0,1-15.78,11.56,47.42,47.42,0,0,1-18.14,3.73A50.67,50.67,0,0,1,398.21,128a35.76,35.76,0,0,1-13.73-9.26,35.26,35.26,0,0,1-7.83-14.6A47,47,0,0,1,375.78,85a54.53,54.53,0,0,1,6.27-19.13A51.1,51.1,0,0,1,410.32,42a58.43,58.43,0,0,1,19.51-3.23,44.52,44.52,0,0,1,7.64.68,38.31,38.31,0,0,1,7.64,2.17,30.3,30.3,0,0,1,7,4,22.3,22.3,0,0,1,5.53,6.09Z" transform="translate(-51.86 -38.78)"/><path class="cls-1" d="M493,121.41h-.25a21,21,0,0,1-9.2,7,30.8,30.8,0,0,1-11.18,2.11,26.21,26.21,0,0,1-8-1.18,17.48,17.48,0,0,1-6.4-3.54,13.84,13.84,0,0,1-3.91-5.84,17,17,0,0,1-.62-8.08q1.12-7.83,5.9-12.11a30.32,30.32,0,0,1,11.31-6.34A54.92,54.92,0,0,1,484.39,91q7.14-.37,13-.37.62-5-2.48-7.89a11.15,11.15,0,0,0-8-2.92,19.81,19.81,0,0,0-8.64,1.93A28.48,28.48,0,0,0,470.78,87L462.33,76.8a40.3,40.3,0,0,1,13.11-7.27,46.27,46.27,0,0,1,14.72-2.42q8.2,0,13.23,2.05a16.07,16.07,0,0,1,7.64,6,20.28,20.28,0,0,1,3,9.75,61.2,61.2,0,0,1-.68,13.36L509.17,129H492Zm-2-18.89q-2.11,0-5.28.19a28.7,28.7,0,0,0-6.21,1.06,16.08,16.08,0,0,0-5.34,2.61,6.81,6.81,0,0,0-2.67,4.85,4.71,4.71,0,0,0,.37,2.92,6.27,6.27,0,0,0,1.74,2.05,6.9,6.9,0,0,0,2.67,1.24,13,13,0,0,0,3,.37,20,20,0,0,0,5.4-.75,18.24,18.24,0,0,0,4.85-2.11,12.73,12.73,0,0,0,3.67-3.48,10.9,10.9,0,0,0,1.86-5l.5-4Z" transform="translate(-51.86 -38.78)"/><path class="cls-1" d="M523.24,68.6h18.64l-1.37,9.69h.25A27.87,27.87,0,0,1,549,69.9a19.75,19.75,0,0,1,10.69-2.8q1.61,0,3.23.12a16.08,16.08,0,0,1,3,.5l-2.36,17a29.09,29.09,0,0,0-3.85-.93,24.36,24.36,0,0,0-4-.31A21.59,21.59,0,0,0,547,85a13.15,13.15,0,0,0-5.34,4.16,19.48,19.48,0,0,0-3,6.4,60.75,60.75,0,0,0-1.68,8.2L533.42,129H514.79Z" transform="translate(-51.86 -38.78)"/><path class="cls-1" d="M618.61,118.55a35.65,35.65,0,0,1-12.49,8.82,36.91,36.91,0,0,1-14.6,3.11,35.48,35.48,0,0,1-12.8-2.24,25.81,25.81,0,0,1-9.75-6.4,25.19,25.19,0,0,1-5.72-10,30,30,0,0,1-.81-13,35,35,0,0,1,4.41-13,36.77,36.77,0,0,1,8.51-10,37.46,37.46,0,0,1,11.56-6.4,40.71,40.71,0,0,1,13.42-2.24,27.59,27.59,0,0,1,11.43,2.24,20.26,20.26,0,0,1,8.08,6.4,24.69,24.69,0,0,1,4.29,10,39,39,0,0,1,.19,13l-.87,5.84H580.22a12.54,12.54,0,0,0,3.67,8.51,12.1,12.1,0,0,0,8.76,3.17,15.29,15.29,0,0,0,8-2.05,26.77,26.77,0,0,0,6.27-5.28ZM606.56,92a9.8,9.8,0,0,0-2-8.08,9.52,9.52,0,0,0-7.83-3.35,15,15,0,0,0-5.59,1,16.08,16.08,0,0,0-4.35,2.55,14.32,14.32,0,0,0-3.11,3.6A14.12,14.12,0,0,0,582,92Z" transform="translate(-51.86 -38.78)"/><path class="cls-1" d="M683.86,118.55a35.65,35.65,0,0,1-12.49,8.82,36.91,36.91,0,0,1-14.6,3.11,35.48,35.48,0,0,1-12.8-2.24,25.81,25.81,0,0,1-9.75-6.4,25.19,25.19,0,0,1-5.72-10,30,30,0,0,1-.81-13,35,35,0,0,1,4.41-13,36.77,36.77,0,0,1,8.51-10,37.46,37.46,0,0,1,11.56-6.4,40.71,40.71,0,0,1,13.42-2.24A27.59,27.59,0,0,1,677,69.34a20.26,20.26,0,0,1,8.08,6.4,24.69,24.69,0,0,1,4.29,10,39,39,0,0,1,.19,13l-.87,5.84H645.47a12.54,12.54,0,0,0,3.67,8.51,12.1,12.1,0,0,0,8.76,3.17,15.29,15.29,0,0,0,8-2.05,26.77,26.77,0,0,0,6.27-5.28ZM671.81,92a9.8,9.8,0,0,0-2-8.08A9.52,9.52,0,0,0,662,80.53a15,15,0,0,0-5.59,1,16.08,16.08,0,0,0-4.35,2.55,14.32,14.32,0,0,0-3.11,3.6A14.12,14.12,0,0,0,647.21,92Z" transform="translate(-51.86 -38.78)"/><path class="cls-1" d="M697.53,68.6h18.64l-1.37,9.69H715a27.87,27.87,0,0,1,8.2-8.39,19.75,19.75,0,0,1,10.69-2.8q1.61,0,3.23.12a16.08,16.08,0,0,1,3,.5l-2.36,17a29.09,29.09,0,0,0-3.85-.93,24.36,24.36,0,0,0-4-.31,21.59,21.59,0,0,0-8.7,1.49,13.15,13.15,0,0,0-5.34,4.16,19.48,19.48,0,0,0-3,6.4,60.75,60.75,0,0,0-1.68,8.2L707.71,129H689.08Z" transform="translate(-51.86 -38.78)"/><polygon class="cls-2" points="33.09 90.2 36.16 68.21 58.16 68.16 55.09 90.15 33.09 90.2"/><polygon class="cls-2" points="0 90.2 3.07 68.21 25.07 68.16 22 90.15 0 90.2"/><polygon class="cls-2" points="66.26 90.13 69.33 68.14 91.33 68.09 88.26 90.08 66.26 90.13"/><polygon class="cls-2" points="70.88 57.04 73.95 35.05 95.95 35 92.88 56.99 70.88 57.04"/><polygon class="cls-1" points="75.53 24.28 78.6 2.29 100.6 2.24 97.53 24.23 75.53 24.28"/><polygon class="cls-2" points="37.8 57.04 40.87 35.05 62.86 35 59.79 56.99 37.8 57.04"/><path class="cls-1" d="M246.88,53.8a11.36,11.36,0,0,1-10.79,9.26,7.65,7.65,0,0,1-7.74-9.26,11.36,11.36,0,0,1,10.79-9.26A7.65,7.65,0,0,1,246.88,53.8Z" transform="translate(-51.86 -38.78)"/></svg>